Coordinates
version=1
nRows=14
nColumns=36
inDegrees=yes

Units are S.I. units (second, meters, Newtons, ...)
If the header above contains a line with 'inDegrees', this indicates whether rotational values are in degrees (yes) or radians (no).

endheader
time	pelvis_tilt	pelvis_list	pelvis_rotation	pelvis_tx	pelvis_ty	pelvis_tz	hip_flexion_r	hip_adduction_r	hip_rotation_r	knee_angle_r	knee_angle_r_beta	ankle_angle_r	subtalar_angle_r	mtp_angle_r	hip_flexion_l	hip_adduction_l	hip_rotation_l	knee_angle_l	knee_angle_l_beta	ankle_angle_l	subtalar_angle_l	mtp_angle_l	lumbar_extension	lumbar_bending	lumbar_rotation	arm_flex_r	arm_add_r	arm_rot_r	elbow_flex_r	pro_sup_r	arm_flex_l	arm_add_l	arm_rot_l	elbow_flex_l	pro_sup_l
      1.98333330	    -17.81701859	     11.95819612	     14.92795016	      0.70123051	      0.82331400	     -0.30475085	     76.05821138	    -22.52403843	      4.58802454	     34.68530713	      0.60537281	     -8.31284072	      8.12983738	     -7.49999628	     59.78982689	     23.46335383	     -4.32415035	     69.64234899	      1.21548829	     26.71409014	    -13.67747819	     -7.49999628	    -36.35295201	     -6.09519741	    -14.54098545	     87.58526535	     -3.14118679	     58.20661173	    130.72170152	     62.66518138	     88.07225794	    -18.40948867	     71.32698456	    130.91936697	     66.62912057
      2.00000000	    -16.77163585	     11.57736974	     14.20566504	      0.70073670	      0.82852052	     -0.30485138	     74.00470594	    -21.93787698	      4.10676182	     34.24042343	      0.59760813	     -8.60674471	      7.25275723	     -7.49999636	     58.03743998	     22.93620602	     -3.48427944	     68.81281266	      1.20101015	     26.15248514	    -14.54359548	     -7.49999636	    -36.59104675	     -5.88121951	    -13.73072095	     87.97116851	     -3.11523950	     55.85902165	    130.60388618	     62.93360410	     87.39153012	    -17.66473352	     68.44228392	    130.93980860	     66.91303382
      2.01666670	    -16.39674138	     11.19214642	     13.53692306	      0.70778764	      0.84727509	     -0.30623097	     72.10495325	    -21.41930352	      3.58706331	     33.44636260	      0.58374915	     -8.34025278	      7.09955327	     -7.49999788	     56.34830792	     22.57992225	     -2.49444042	     67.31991106	      1.17495410	     25.76568802	    -14.85877847	     -7.49999788	    -36.23328464	     -5.79736899	    -12.64178093	     86.62747360	     -3.92213672	     56.14288560	    130.26311147	     71.64477803	     85.23939545	    -17.33501051	     68.01056005	    130.05193772	     78.75200870
      2.03333330	    -15.95529913	     10.81355208	     12.99865169	      0.70241015	      0.85859246	     -0.30367639	     70.02337234	    -20.93175988	      3.08214009	     32.46557073	      0.56663110	     -8.57559031	      6.93254515	     -7.49999791	     54.53569097	     22.21464055	     -1.60218556	     65.49366935	      1.14308017	     25.18308622	    -15.34137818	     -7.49999791	    -36.13930151	     -5.59819066	    -11.80140004	     86.24990293	     -4.38062718	     56.57596512	    128.97889760	     71.66831728	     84.62486984	    -17.13686758	     68.29341415	    128.81449950	     78.79449496
      2.05000000	    -15.22091971	     10.24012429	     12.39599165	      0.71455127	      0.86843132	     -0.30217839	     67.08944193	    -20.30014191	      2.22859694	     30.95907608	      0.54033781	     -8.52948941	      7.08679556	     -7.49999798	     51.92292246	     21.78234472	     -0.14026093	     63.17922655	      1.10268552	     24.51197075	    -15.99655644	     -7.49999798	    -35.86983288	     -5.53616807	    -10.97278728	     85.25380578	     -3.66594461	     56.72316894	    130.15482248	     71.97264264	     83.13856938	    -16.35199508	     66.90135681	    129.74289774	     78.92256611
      2.06666670	    -14.74116108	      9.75604203	     11.86499387	      0.71492430	      0.87320792	     -0.30275677	     64.80103744	    -19.64896049	      1.84323180	     29.87298120	      0.52138188	     -8.47726093	      7.03207321	     -7.49999803	     49.74298344	     21.26778873	      0.92772610	     60.94374497	      1.06366901	     23.72969986	    -16.48283257	     -7.49999803	    -35.16497457	     -5.50142792	    -10.53054555	     84.67638935	     -3.37744843	     55.63036587	    131.28212440	     72.09008540	     82.04156712	    -15.69918797	     65.49599578	    130.14859892	     79.10419521
      2.08333330	    -14.29931804	      9.38426700	     11.42840065	      0.71004081	      0.87809434	     -0.30651751	     62.93944918	    -19.17361239	      1.47712976	     29.20438822	      0.50971273	     -8.49650258	      6.87974481	     -7.49999814	     48.04629547	     20.90354611	      1.69832855	     58.98415278	      1.02946767	     22.60547752	    -17.34708633	     -7.49999814	    -34.56545422	     -5.48871213	     -9.84281192	     84.20116339	     -4.34742065	     54.37190721	    131.27098568	     72.44117299	     81.94266486	    -14.45578050	     64.56114193	    128.83334934	     79.80055978
      2.10000000	    -14.07441255	      8.89467814	     10.95427683	      0.71569237	      0.88300556	     -0.30269088	     61.30808705	    -18.45528629	      1.18704640	     28.56880449	      0.49861970	     -8.44453844	      6.27384625	     -7.49999818	     46.53462232	     20.35322742	      2.47867460	     57.11905639	      0.99691560	     21.72167017	    -17.91875905	     -7.49999818	    -33.47598912	     -5.46948726	     -9.02446744	     83.36639802	     -4.70976531	     53.57518740	    130.75491925	     72.55024426	     81.23992826	    -14.34593570	     64.68425563	    129.44911205	     80.13762782
      2.11666670	    -13.84188507	      8.48840668	     10.44509160	      0.71586316	      0.88776898	     -0.30210898	     59.89176416	    -17.74370868	      0.97697435	     28.11507562	      0.49070064	     -8.38061441	      5.53161257	     -7.49999822	     45.01115161	     19.79690372	      3.12937123	     55.18044472	      0.96308044	     20.67636332	    -18.61612786	     -7.49999822	    -32.27720345	     -5.57866170	     -8.42216108	     83.05996945	     -3.84518022	     53.18794809	    130.62910727	     72.87964076	     80.65520571	    -13.54351809	     62.61987222	    129.76416698	     80.34077422
      2.13333330	    -13.92763986	      7.97295830	      9.89001571	      0.71625097	      0.89138487	     -0.30220523	     58.99633519	    -16.92178883	      0.84528923	     27.91987941	      0.48729382	     -8.11070594	      4.79165666	     -7.49999828	     43.90404092	     19.10442470	      3.59794980	     53.40135389	      0.93202945	     19.69166880	    -19.00390079	     -7.49999828	    -30.93720524	     -5.54901485	     -7.85145497	     82.97142586	     -3.96857805	     52.47142696	    131.30127209	     73.20506877	     79.99854286	    -13.03931563	     61.94087495	    130.45181022	     80.73852657
      2.15000000	    -13.78682705	      7.42828417	      9.26230928	      0.71713432	      0.89939328	     -0.30185028	     57.84927692	    -16.05401969	      0.61037807	     27.66315333	      0.48281311	     -7.81256515	      4.21220102	     -7.49999831	     42.58847944	     18.28180543	      3.98477983	     51.58259387	      0.90028610	     18.84342514	    -19.08839804	     -7.49999831	    -29.98715978	     -5.46474120	     -7.51365059	     81.82898374	     -4.28929587	     50.75891609	    130.24349257	     73.29224448	     78.87354478	    -13.58833034	     61.39271503	    129.54776541	     80.98675302
      2.16666670	    -13.65258737	      6.85332107	      8.70077908	      0.71798290	      0.90953570	     -0.30159310	     56.51048457	    -15.18181381	      0.35129991	     27.27930100	      0.47611362	     -7.37088687	      3.75960931	     -7.49999837	     41.15675099	     17.51446774	      4.61589635	     49.48920229	      0.86374952	     17.56484224	    -19.35362075	     -7.49999837	    -29.18182940	     -5.23267496	     -6.67862332	     80.65071672	     -5.08426243	     50.24298014	    130.49820776	     73.84196676	     77.32827310	    -13.22720428	     60.64502439	    129.23514631	     81.46848510
      2.18333330	    -13.51703401	      6.35526526	      8.13964080	      0.71942453	      0.91989411	     -0.30073977	     55.02412927	    -14.41087725	     -0.11784068	     26.52037937	      0.46286794	     -7.13213284	      3.61754261	     -7.49999841	     39.58593774	     16.75313018	      5.12949996	     47.06880824	      0.82150568	     16.28214645	    -19.30699090	     -7.49999841	    -28.30590241	     -5.10812588	     -6.15628888	     79.43925601	     -4.71198069	     50.97522051	    131.25712956	     74.29902789	     76.31021656	    -12.79405421	     59.83600621	    129.27442244	     81.72363897
      2.20000000	    -13.20247979	      5.86158344	      7.66120973	      0.72084956	      0.93058507	     -0.30130565	     53.26789089	    -13.72741098	     -0.76582828	     25.56156705	      0.44613351	     -6.89569075	      3.56766803	     -7.49999846	     37.77855527	     15.94159659	      5.50475750	     44.54925672	      0.77753121	     14.66031650	    -19.37747423	     -7.49999846	    -27.68491690	     -4.84319882	     -5.44071549	     78.47668024	     -5.69998023	     51.57336454	    131.62060708	     74.72753213	     75.07746506	    -12.02617266	     58.17250872	    128.13377438	     82.03619020
